PathFileType	3	(X/Y/Z)	D:\VICON_DB\Goncalves\Pilot01\09-03-2026\bw_sq_01.trc
DataRate	CameraRate	NumFrames	NumMarkers	Units	OrigDataRate	OrigDataStartFrame	OrigNumFrames
200.0	200.0	9	34	mm	200.0	1	767	
Frame#	Time	LASI			RASI			LPSI			RPSI			LTHI			LTHAP			LTHAD			LKNE			LKNM			LTIB			LTIAP			LTIAD			LANK			LMED			LHEE			LTOE			LFMH			LSMH			LVMH			RTHI			RTHAP			RTHAD			RKNE			RKNM			RTIB			RTIAP			RTIAD			RANK			RMED			RHEE			RTOE			RFMH			RSMH			RVMH			
		X1	Y1	Z1	X2	Y2	Z2	X3	Y3	Z3	X4	Y4	Z4	X5	Y5	Z5	X6	Y6	Z6	X7	Y7	Z7	X8	Y8	Z8	X9	Y9	Z9	X10	Y10	Z10	X11	Y11	Z11	X12	Y12	Z12	X13	Y13	Z13	X14	Y14	Z14	X15	Y15	Z15	X16	Y16	Z16	X17	Y17	Z17	X18	Y18	Z18	X19	Y19	Z19	X20	Y20	Z20	X21	Y21	Z21	X22	Y22	Z22	X23	Y23	Z23	X24	Y24	Z24	X25	Y25	Z25	X26	Y26	Z26	X27	Y27	Z27	X28	Y28	Z28	X29	Y29	Z29	X30	Y30	Z30	X31	Y31	Z31	X32	Y32	Z32	X33	Y33	Z33	X34	Y34	Z34	
1	0	120.08453	901.99719	-1066.1941	132.19202	901.4953	-1327.8564				329.25681	939.13501	-1217.7797	126.78905	692.79413	-1034.9877	142.9332	766.1272	-1020.0622	170.61069	628.60999	-1010.0062	226.75916	474.0816	-1023.7443				267.31522	281.03119	-1004.6638	211.45006	356.41104	-1061.7954	227.14992	253.91376	-1034.5999	287.11026	70.228195	-1029.407				329.93945	62.092396	-1082.3217	205.88135	71.670944	-1051.1665	148.99678	44.553848	-1077.224				163.20831	25.323898	-996.19153	179.5938	625.08557	-1376.8204	140.98161	750.6214	-1356.6409	123.98571	658.28491	-1334.7552	228.82585	490.38852	-1360.4685				250.57936	296.30984	-1378.4417	210.58017	345.66962	-1324.0698	216.73022	264.45087	-1326.697	295.00891	62.208359	-1352.1812				331.77164	58.373798	-1310.499	202.72046	68.794754	-1334.8777	152.47997	49.08588	-1309.3385				164.97737	20.229053	-1383.1382
2	0.005	120.05188	901.99792	-1066.2201	132.17758	901.50531	-1327.8802				328.98129	939.15717	-1217.7062	126.72551	692.79706	-1035.0256	142.87564	766.12457	-1020.0967	170.53543	628.60736	-1010.0402	226.68237	474.07474	-1023.7613				267.27295	281.0296	-1004.6691	211.39908	356.39932	-1061.8127	227.1124	253.905	-1034.6111	287.10684	70.23143	-1029.4069				329.93243	62.097309	-1082.3229	205.88019	71.670769	-1051.1693	148.99648	44.553284	-1077.2264				163.20718	25.323132	-996.19342	179.60724	625.08179	-1376.8375	140.97392	750.61487	-1356.6705	124.00027	658.27264	-1334.7642	228.8528	490.39175	-1360.4838				250.59419	296.31421	-1378.4639	210.59186	345.69254	-1324.0824	216.75821	264.45212	-1326.7064	295.01184	62.205246	-1352.183				331.77145	58.371632	-1310.5049	202.72101	68.795464	-1334.8813	152.4879	49.086357	-1309.3337				164.96655	20.240795	-1383.1517
3	0.01	120.01717	901.99927	-1066.2477	132.15697	901.51752	-1327.9066				328.70245	939.18683	-1217.6389	126.65675	692.80115	-1035.0671	142.81345	766.1225	-1020.1341	170.45387	628.60486	-1010.0781	226.59801	474.06772	-1023.7808				267.22656	281.02856	-1004.6757	211.34283	356.38727	-1061.8315	227.07108	253.89561	-1034.6243	287.10385	70.234924	-1029.4064				329.92401	62.103455	-1082.3251	205.87897	71.670616	-1051.1724	148.99615	44.55299	-1077.2288				163.20587	25.322756	-996.1955	179.61697	625.07776	-1376.8571	140.96069	750.60803	-1356.703	124.00982	658.26031	-1334.7766	228.87859	490.39532	-1360.501				250.60904	296.31836	-1378.4874	210.60416	345.71515	-1324.0962	216.78685	264.45358	-1326.7169	295.01471	62.202007	-1352.1852				331.77203	58.369938	-1310.5106	202.72137	68.796341	-1334.8855	152.4966	49.087074	-1309.3286				164.95578	20.252392	-1383.1655
4	0.015	119.98154	902.0014	-1066.2765	132.1292	901.5321	-1327.9343				328.42941	939.22424	-1217.5815	126.58466	692.8064	-1035.1115	142.74835	766.12146	-1020.174	170.36821	628.60272	-1010.1193	226.50789	474.06079	-1023.8029				267.17709	281.0282	-1004.6836	211.28244	356.37515	-1061.8517	227.02686	253.88571	-1034.6388	287.10159	70.238556	-1029.4055				329.91434	62.110912	-1082.3289	205.87767	71.670433	-1051.176	148.99585	44.55307	-1077.2316				163.20444	25.322905	-996.19788	179.62115	625.07391	-1376.8789	140.94078	750.60089	-1356.7378	124.01244	658.24823	-1334.7932	228.9014	490.3992	-1360.5201				250.62308	296.3219	-1378.5118	210.61638	345.73651	-1324.1113	216.8149	264.45517	-1326.728	295.0174	62.198746	-1352.1877				331.77335	58.368908	-1310.516	202.72142	68.797379	-1334.8901	152.50577	49.088047	-1309.323				164.94569	20.26306	-1383.1781
5	0.02	119.94625	902.00427	-1066.3047	132.09335	901.54895	-1327.9634				328.16901	939.26874	-1217.5367	126.51134	692.81311	-1035.1573	142.6825	766.1214	-1020.215	170.28088	628.60114	-1010.1632	226.41428	474.05429	-1023.8275				267.12582	281.02869	-1004.6929	211.21918	356.36349	-1061.8728	226.98083	253.8757	-1034.6547	287.1004	70.242104	-1029.4039				329.90338	62.119701	-1082.3341	205.87633	71.670158	-1051.1804	148.99553	44.553604	-1077.2343				163.20285	25.323681	-996.20038	179.61794	625.07025	-1376.903	140.91312	750.59375	-1356.7739	124.00635	658.23694	-1334.8132	228.91942	490.40323	-1360.541				250.63547	296.32483	-1378.5359	210.62747	345.75589	-1324.1274	216.84105	264.45682	-1326.7396	295.01965	62.19561	-1352.1908				331.77515	58.368675	-1310.5216	202.72105	68.798584	-1334.8954	152.51512	49.089291	-1309.3174				164.93721	20.271818	-1383.189
6	0.025	119.91263	902.00818	-1066.3318	132.04877	901.56799	-1327.9921				327.92615	939.31885	-1217.5059	126.43899	692.82123	-1035.2036	142.61807	766.12262	-1020.2563	170.19453	628.59991	-1010.2086	226.31958	474.04852	-1023.8538				267.07397	281.03012	-1004.7037	211.1544	356.35266	-1061.8948	226.93411	253.86578	-1034.6716	287.10049	70.245392	-1029.4019				329.89148	62.129784	-1082.3412	205.87488	71.669655	-1051.1853	148.99522	44.554611	-1077.2373				163.20125	25.325157	-996.20312	179.60553	625.06714	-1376.9287	140.87677	750.58667	-1356.8103	123.98991	658.22656	-1334.8367	228.93071	490.40717	-1360.5631				250.64507	296.32687	-1378.559	210.63628	345.7728	-1324.1439	216.86395	264.45825	-1326.7512	295.02142	62.192696	-1352.1943				331.77719	58.369308	-1310.5272	202.72028	68.799911	-1334.901	152.52425	49.090778	-1309.3118				164.93132	20.277645	-1383.1965
7	0.03	119.88197	902.01276	-1066.3563	131.995	901.58887	-1328.0203				327.70389	939.37231	-1217.4896	126.36977	692.83063	-1035.2487	142.55734	766.12518	-1020.2963	170.1118	628.59943	-1010.2546	226.22626	474.0437	-1023.8819				267.0231	281.03244	-1004.7162	211.08958	356.34286	-1061.9175	226.88791	253.85625	-1034.6898	287.10202	70.248344	-1029.3993				329.87869	62.141033	-1082.35	205.87334	71.668724	-1051.1907	148.99486	44.556068	-1077.2402				163.1996	25.327326	-996.20593	179.58226	625.06458	-1376.9557	140.8311	750.58008	-1356.8457	123.96172	658.21729	-1334.8632	228.93356	490.41071	-1360.5865				250.65079	296.32794	-1378.5809	210.64157	345.78683	-1324.1604	216.88234	264.45938	-1326.7628	295.02252	62.190121	-1352.1979				331.77902	58.370819	-1310.5332	202.71898	68.801346	-1334.9069	152.53267	49.092445	-1309.3068				164.92874	20.279842	-1383.2001
8	0.035	119.85545	902.01807	-1066.3773	131.93169	901.61115	-1328.0463				327.50391	939.42657	-1217.488	126.30569	692.84131	-1035.2913	142.50232	766.12927	-1020.3341	170.03516	628.59937	-1010.3004	226.1367	474.04004	-1023.9114				266.97449	281.03561	-1004.7302	211.02612	356.33429	-1061.9402	226.84328	253.84727	-1034.7083	287.10486	70.250984	-1029.3961				329.86523	62.153305	-1082.3607	205.87183	71.667152	-1051.1968	148.99449	44.557899	-1077.2433				163.19806	25.330122	-996.20886	179.54675	625.06268	-1376.9839	140.77544	750.57379	-1356.8792	123.92075	658.20947	-1334.892	228.92647	490.41373	-1360.6104				250.65134	296.32791	-1378.6007	210.64221	345.79776	-1324.1766	216.89499	264.45999	-1326.7737	295.02286	62.187939	-1352.2018				331.78043	58.373158	-1310.5398	202.71712	68.802811	-1334.9128	152.53989	49.094173	-1309.3026				164.92958	20.278299	-1383.1995
9	0.04	119.83418	902.02399	-1066.3936	131.8588	901.63428	-1328.0699				327.32681	939.47894	-1217.5007	126.24854	692.85297	-1035.3303	142.45496	766.13464	-1020.3687	169.96689	628.59961	-1010.3446	226.05319	474.03754	-1023.9418				266.92935	281.03952	-1004.746	210.96535	356.32709	-1061.9628	226.80132	253.83905	-1034.7271	287.10873	70.253456	-1029.3928				329.85129	62.166378	-1082.3733	205.87039	71.664696	-1051.2036	148.99409	44.559959	-1077.2465				163.19664	25.333391	-996.21185	179.49788	625.06171	-1377.0121	140.7093	750.56793	-1356.9095	123.86635	658.20276	-1334.922	228.90808	490.4158	-1360.6346				250.64528	296.32678	-1378.6189	210.63708	345.80533	-1324.192	216.90092	264.45999	-1326.7836	295.02231	62.186211	-1352.2059				331.78122	58.376232	-1310.5472	202.71468	68.80426	-1334.9189	152.54564	49.095806	-1309.2992				164.93335	20.2736	-1383.1949
